<?xml version="1.0" encoding="UTF-8" standalone="no"?>
<svg
   version="1.1"
   width="48"
   height="48"
   id="svg4033"
   sodipodi:docname="media-optical-audio.svg"
   inkscape:version="1.2.2 (b0a8486541, 2022-12-01)"
   xmlns:inkscape="http://www.inkscape.org/namespaces/inkscape"
   xmlns:sodipodi="http://sodipodi.sourceforge.net/DTD/sodipodi-0.dtd"
   xmlns:xlink="http://www.w3.org/1999/xlink"
   xmlns="http://www.w3.org/2000/svg"
   xmlns:svg="http://www.w3.org/2000/svg"
   xmlns:rdf="http://www.w3.org/1999/02/22-rdf-syntax-ns#"
   xmlns:cc="http://creativecommons.org/ns#"
   xmlns:dc="http://purl.org/dc/elements/1.1/">
  <sodipodi:namedview
     id="namedview14513"
     pagecolor="#ffffff"
     bordercolor="#666666"
     borderopacity="1.0"
     inkscape:showpageshadow="2"
     inkscape:pageopacity="0.0"
     inkscape:pagecheckerboard="0"
     inkscape:deskcolor="#d1d1d1"
     showgrid="false"
     inkscape:zoom="16"
     inkscape:cx="35.28125"
     inkscape:cy="33.8125"
     inkscape:window-width="1278"
     inkscape:window-height="1005"
     inkscape:window-x="676"
     inkscape:window-y="9"
     inkscape:window-maximized="0"
     inkscape:current-layer="svg4033" />
  <defs
     id="defs4035">
    <linearGradient
       id="linearGradient6036">
      <stop
         id="stop6038"
         style="stop-color:#ffffff;stop-opacity:1"
         offset="0" />
      <stop
         id="stop6040"
         style="stop-color:#ffffff;stop-opacity:0"
         offset="1" />
    </linearGradient>
    <linearGradient
       id="linearGradient4011">
      <stop
         id="stop4013"
         style="stop-color:#ffffff;stop-opacity:1"
         offset="0" />
      <stop
         id="stop4015"
         style="stop-color:#ffffff;stop-opacity:0.23529412"
         offset="0.507761" />
      <stop
         id="stop4017"
         style="stop-color:#ffffff;stop-opacity:0.15686275"
         offset="0.83456558" />
      <stop
         id="stop4019"
         style="stop-color:#ffffff;stop-opacity:0.39215687"
         offset="1" />
    </linearGradient>
    <linearGradient
       x1="20.580074"
       y1="10.774516"
       x2="24.27351"
       y2="9.8622112"
       id="linearGradient3311"
       xlink:href="#linearGradient3487"
       gradientUnits="userSpaceOnUse"
       spreadMethod="reflect" />
    <linearGradient
       id="linearGradient3487">
      <stop
         id="stop3489"
         style="stop-color:#e6cde2;stop-opacity:1"
         offset="0" />
      <stop
         id="stop3491"
         style="stop-color:#e6cde2;stop-opacity:0"
         offset="1" />
    </linearGradient>
    <linearGradient
       x1="17.494959"
       y1="11.200086"
       x2="21.047453"
       y2="9.7956104"
       id="linearGradient3313"
       xlink:href="#linearGradient3495"
       gradientUnits="userSpaceOnUse"
       spreadMethod="reflect" />
    <linearGradient
       id="linearGradient3495">
      <stop
         id="stop3497"
         style="stop-color:#c1cbe4;stop-opacity:1"
         offset="0" />
      <stop
         id="stop3499"
         style="stop-color:#c1cbe4;stop-opacity:0"
         offset="1" />
    </linearGradient>
    <linearGradient
       x1="14.084608"
       y1="13.045606"
       x2="16.994024"
       y2="10.732353"
       id="linearGradient3315"
       xlink:href="#linearGradient3503"
       gradientUnits="userSpaceOnUse"
       spreadMethod="reflect" />
    <linearGradient
       id="linearGradient3503">
      <stop
         id="stop3505"
         style="stop-color:#c4ebdd;stop-opacity:1"
         offset="0" />
      <stop
         id="stop3507"
         style="stop-color:#c4ebdd;stop-opacity:0"
         offset="1" />
    </linearGradient>
    <linearGradient
       x1="12.371647"
       y1="16.188046"
       x2="14.609327"
       y2="13.461712"
       id="linearGradient3317"
       xlink:href="#linearGradient3511"
       gradientUnits="userSpaceOnUse"
       spreadMethod="reflect" />
    <linearGradient
       id="linearGradient3511">
      <stop
         id="stop3513"
         style="stop-color:#ebeec7;stop-opacity:1"
         offset="0" />
      <stop
         id="stop3515"
         style="stop-color:#ebeec7;stop-opacity:0"
         offset="1" />
    </linearGradient>
    <linearGradient
       x1="10.609375"
       y1="17.886322"
       x2="9.7297754"
       y2="20.612656"
       id="linearGradient3319"
       xlink:href="#linearGradient3519"
       gradientUnits="userSpaceOnUse"
       spreadMethod="reflect" />
    <linearGradient
       id="linearGradient3519">
      <stop
         id="stop3521"
         style="stop-color:#fcd9cd;stop-opacity:1"
         offset="0" />
      <stop
         id="stop3523"
         style="stop-color:#fcd9cd;stop-opacity:0"
         offset="1" />
    </linearGradient>
    <linearGradient
       x1="20.580074"
       y1="10.774516"
       x2="24.27351"
       y2="9.8622112"
       id="linearGradient3346"
       xlink:href="#linearGradient3487"
       gradientUnits="userSpaceOnUse"
       spreadMethod="reflect" />
    <linearGradient
       x1="17.494959"
       y1="11.200086"
       x2="21.047453"
       y2="9.7956104"
       id="linearGradient3348"
       xlink:href="#linearGradient3495"
       gradientUnits="userSpaceOnUse"
       spreadMethod="reflect" />
    <linearGradient
       x1="14.084608"
       y1="13.045606"
       x2="16.994024"
       y2="10.732353"
       id="linearGradient3350"
       xlink:href="#linearGradient3503"
       gradientUnits="userSpaceOnUse"
       spreadMethod="reflect" />
    <linearGradient
       x1="12.371647"
       y1="16.188046"
       x2="14.609327"
       y2="13.461712"
       id="linearGradient3352"
       xlink:href="#linearGradient3511"
       gradientUnits="userSpaceOnUse"
       spreadMethod="reflect" />
    <linearGradient
       x1="10.609375"
       y1="17.886322"
       x2="9.7297754"
       y2="20.612656"
       id="linearGradient3354"
       xlink:href="#linearGradient3519"
       gradientUnits="userSpaceOnUse"
       spreadMethod="reflect" />
    <linearGradient
       x1="12.2744"
       y1="32.4165"
       x2="35.391201"
       y2="14.2033"
       id="linearGradient3263"
       gradientUnits="userSpaceOnUse">
      <stop
         id="stop3265"
         style="stop-color:#dedcde;stop-opacity:1"
         offset="0" />
      <stop
         id="stop3267"
         style="stop-color:#f0f0f0;stop-opacity:1"
         offset="0.5" />
      <stop
         id="stop3269"
         style="stop-color:#d2d2d2;stop-opacity:1"
         offset="1" />
    </linearGradient>
    <linearGradient
       id="linearGradient23419">
      <stop
         id="stop23421"
         style="stop-color:#000000;stop-opacity:1"
         offset="0" />
      <stop
         id="stop23423"
         style="stop-color:#000000;stop-opacity:0"
         offset="1" />
    </linearGradient>
    <linearGradient
       xlink:href="#linearGradient6036"
       id="linearGradient3054"
       gradientUnits="userSpaceOnUse"
       gradientTransform="matrix(0.4293444,0,0,-0.4293442,13.546752,34.733607)"
       x1="18.775953"
       y1="4.0378027"
       x2="18.203465"
       y2="45.962208" />
    <linearGradient
       xlink:href="#linearGradient4011"
       id="linearGradient3057"
       gradientUnits="userSpaceOnUse"
       gradientTransform="matrix(1.054054,0,0,1.054054,-51.611003,-2.7278988)"
       x1="71.204407"
       y1="6.2375584"
       x2="71.204407"
       y2="44.340794" />
    <linearGradient
       xlink:href="#linearGradient3263"
       id="linearGradient3076"
       gradientUnits="userSpaceOnUse"
       gradientTransform="matrix(0,1.1714389,-1.1714389,0,51.060244,-4.11454)"
       x1="12.2744"
       y1="32.4165"
       x2="35.391201"
       y2="14.2033" />
    <radialGradient
       xlink:href="#linearGradient23419"
       id="radialGradient3081"
       gradientUnits="userSpaceOnUse"
       gradientTransform="matrix(0.9722718,0,0,0.2872354,1.3124992,27.540524)"
       cx="23.334524"
       cy="41.63604"
       fx="23.334524"
       fy="41.63604"
       r="22.627417" />
    <linearGradient
       gradientTransform="matrix(0.45945947,0,0,0.45945947,24.972969,25.972977)"
       gradientUnits="userSpaceOnUse"
       xlink:href="#linearGradient878"
       id="linearGradient5397"
       y2="41.414486"
       x2="30.526697"
       y1="6.5846324"
       x1="30.526697" />
    <linearGradient
       id="linearGradient878">
      <stop
         id="stop870"
         style="stop-color:#ffffff;stop-opacity:1"
         offset="0" />
      <stop
         id="stop872"
         style="stop-color:#ffffff;stop-opacity:0.23529412"
         offset="0" />
      <stop
         id="stop874"
         style="stop-color:#ffffff;stop-opacity:0.15686275"
         offset="1" />
      <stop
         id="stop876"
         style="stop-color:#ffffff;stop-opacity:0.39215687"
         offset="1" />
    </linearGradient>
    <linearGradient
       xlink:href="#linearGradient864"
       id="linearGradient866"
       x1="23.932209"
       y1="2.4120836"
       x2="23.932209"
       y2="21.493765"
       gradientUnits="userSpaceOnUse"
       gradientTransform="translate(16,25.000001)" />
    <linearGradient
       id="linearGradient864">
      <stop
         style="stop-color:#ffa154;stop-opacity:1"
         offset="0"
         id="stop860" />
      <stop
         style="stop-color:#f37329;stop-opacity:1"
         offset="1"
         id="stop862" />
    </linearGradient>
    <radialGradient
       gradientTransform="matrix(2.003784,0,0,1.4,27.98813,-17.4)"
       gradientUnits="userSpaceOnUse"
       xlink:href="#linearGradient3688-166-749-9"
       id="radialGradient3082-6-3"
       fy="43.5"
       fx="4.9929786"
       r="2.5"
       cy="43.5"
       cx="4.9929786" />
    <linearGradient
       id="linearGradient3688-166-749-9">
      <stop
         offset="0"
         style="stop-color:#181818;stop-opacity:1"
         id="stop2883-2" />
      <stop
         offset="1"
         style="stop-color:#181818;stop-opacity:0"
         id="stop2885-2" />
    </linearGradient>
    <radialGradient
       gradientTransform="matrix(2.003784,0,0,1.4,-20.01187,-104.4)"
       gradientUnits="userSpaceOnUse"
       xlink:href="#linearGradient3688-166-749-9"
       id="radialGradient3084-4-5"
       fy="43.5"
       fx="4.9929786"
       r="2.5"
       cy="43.5"
       cx="4.9929786" />
    <linearGradient
       gradientUnits="userSpaceOnUse"
       xlink:href="#linearGradient3702-501-757-1"
       id="linearGradient3086-8-3"
       y2="39.999443"
       x2="25.058096"
       y1="47.027729"
       x1="25.058096" />
    <linearGradient
       id="linearGradient3702-501-757-1">
      <stop
         offset="0"
         style="stop-color:#181818;stop-opacity:0"
         id="stop2895-2" />
      <stop
         offset="0.5"
         style="stop-color:#181818;stop-opacity:1"
         id="stop2897-89" />
      <stop
         offset="1"
         style="stop-color:#181818;stop-opacity:0"
         id="stop2899-36" />
    </linearGradient>
  </defs>
  <metadata
     id="metadata4038">
    <rdf:RDF>
      <cc:Work
         rdf:about="">
        <dc:format>image/svg+xml</dc:format>
        <dc:type
           rdf:resource="http://purl.org/dc/dcmitype/StillImage" />
      </cc:Work>
    </rdf:RDF>
  </metadata>
  <path
     style="opacity:0.3;fill:url(#radialGradient3081);fill-opacity:1;fill-rule:evenodd;stroke:none;stroke-width:2;marker:none;visibility:visible;display:inline;overflow:visible"
     id="path23417"
     d="m 46,39.499867 c 0.0011,3.589753 -9.848934,6.500001 -22,6.500001 -12.151066,0 -22.001133,-2.910248 -21.9999999,-6.500001 C 1.998867,35.910116 11.848934,32.999868 24,32.999868 c 12.151066,0 22.001133,2.910248 22,6.499999 l 0,0 z" />
  <path
     style="fill:url(#linearGradient3076);fill-rule:nonzero;stroke:none;stroke-width:1;stroke-miterlimit:4;stroke-opacity:1"
     id="path2781"
     d="M 44.5,24 C 44.5,12.637039 35.362959,3.5 24,3.5 12.637038,3.5 3.5000001,12.63704 3.5000001,24 3.4999981,35.36296 12.637039,44.5 24,44.5 35.362958,44.499998 44.5,35.362961 44.5,24 z m -13,0 c 0,4.12813 -3.28927,7.5 -7.5,7.5 -4.29333,0 -7.5,-3.455313 -7.5,-7.5 0,-4.127303 3.041467,-7.5 7.5,-7.5 4.458533,0 7.5,3.45447 7.5,7.5 z" />
  <path
     style="opacity:0.5;fill:#ffffff;fill-opacity:1;fill-rule:nonzero;stroke:none;stroke-width:1;marker:none;visibility:visible;display:inline;overflow:visible;enable-background:accumulate"
     id="path2474"
     d="m 24,16 c -4.416,0 -8,3.584 -8,8 0,4.416 3.584,8 8,8 4.416,0 8,-3.584 8,-8 0,-4.416 -3.584,-8 -8,-8 z m 0,4 c 2.208,0 4,1.792 4,4 0,2.208 -1.792,4 -4,4 -2.208,0 -4,-1.792 -4,-4 0,-2.208 1.792,-4 4,-4 z" />
  <path
     style="fill:none;stroke:#000000;stroke-width:1;stroke-linecap:butt;stroke-linejoin:round;stroke-miterlimit:4;stroke-opacity:1;stroke-dasharray:none;stroke-dashoffset:0;marker:none;visibility:visible;display:inline;overflow:visible;enable-background:accumulate;opacity:0.29999999999999999"
     id="path3418"
     d="m 24,20.25 c 2.07,0 3.75,1.68 3.75,3.75 0,2.07 -1.68,3.75 -3.75,3.75 -2.07,0 -3.75,-1.68 -3.75,-3.75 0,-2.07 1.68,-3.75 3.75,-3.75 z" />
  <g
     id="g3527">
    <path
       style="opacity:0.8;fill:url(#linearGradient3346);fill-opacity:1;fill-rule:nonzero;stroke:none"
       id="path3296"
       transform="matrix(0.9996011,0.02824295,-0.02824295,0.9996011,0.6924114,-0.6708346)"
       d="M 15.856928,5.7307748 20.625,16.34375 C 21.660403,15.885186 22.795334,15.625 24,15.625 c 0.03206,0 0.06178,-3.6e-4 0.09375,0 L 24.10801,4.0047512 c -2.94215,-0.070687 -5.543041,0.6572865 -8.251083,1.7260236 l 10e-7,0 z" />
    <path
       style="opacity:0.8;fill:url(#linearGradient3348);fill-opacity:1;fill-rule:nonzero;stroke:none"
       id="path3308"
       d="m 12.121471,7.9060109 6.931026,9.3601041 c 0.913109,-0.669755 1.965938,-1.167064 3.142629,-1.425169 0.03132,-0.0069 0.06026,-0.01359 0.09157,-0.02009 L 19.857174,4.426276 c -2.888973,0.5613244 -5.31953,1.8556038 -7.735703,3.4797349 l 0,0 z" />
    <path
       style="opacity:0.8;fill:url(#linearGradient3350);fill-opacity:1;fill-rule:nonzero;stroke:none"
       id="path3310"
       d="m 8.2523933,11.646535 9.2137237,7.155818 c 0.70865,-0.883264 1.596891,-1.636119 2.666685,-2.18998 0.02847,-0.01474 0.05469,-0.02872 0.08325,-0.0431 L 14.86585,6.2506132 C 12.220599,7.5405321 10.165881,9.452393 8.2523933,11.646535 z" />
    <path
       style="opacity:0.8;fill:url(#linearGradient3352);fill-opacity:1;fill-rule:nonzero;stroke:none"
       id="path3312"
       d="m 5.6328855,16.073974 c 7.1748065,2.242248 7.8502625,7.031463 12.7767855,1.754127 L 10.499985,9.1321388 C 8.2787249,11.062747 6.9132871,13.459349 5.6328855,16.073974 z" />
    <path
       style="opacity:0.8;fill:url(#linearGradient3354);fill-opacity:1;fill-rule:nonzero;stroke:none"
       id="path3314"
       d="M 7.155289,13.193173 C 5.9722117,14.945185 5.2475768,16.829547 4.6301929,18.837116 L 15.96875,21.8125 C 16.184264,21.049497 16.486796,20.297733 16.9375,19.59375 16.95479,19.56675 16.98246,19.52673 17,19.5 L 7.155289,13.193173 z" />
  </g>
  <g
     id="g3297"
     transform="matrix(-1,0,0,-1,47.999999,47.990833)">
    <path
       style="opacity:0.8;fill:url(#linearGradient3311);fill-opacity:1;fill-rule:nonzero;stroke:none"
       id="path3299"
       transform="matrix(0.9996011,0.02824295,-0.02824295,0.9996011,0.6924114,-0.6708346)"
       d="M 15.856928,5.7307748 20.625,16.34375 C 21.660403,15.885186 22.795334,15.625 24,15.625 c 0.03206,0 0.06178,-3.6e-4 0.09375,0 L 24.10801,4.0047512 c -2.94215,-0.070687 -5.543041,0.6572865 -8.251083,1.7260236 l 10e-7,0 z" />
    <path
       style="opacity:0.8;fill:url(#linearGradient3313);fill-opacity:1;fill-rule:nonzero;stroke:none"
       id="path3301"
       d="m 12.121471,7.9060109 6.931026,9.3601041 c 0.913109,-0.669755 1.965938,-1.167064 3.142629,-1.425169 0.03132,-0.0069 0.06026,-0.01359 0.09157,-0.02009 L 19.857174,4.426276 c -2.888973,0.5613244 -5.31953,1.8556038 -7.735703,3.4797349 l 0,0 z" />
    <path
       style="opacity:0.8;fill:url(#linearGradient3315);fill-opacity:1;fill-rule:nonzero;stroke:none"
       id="path3303"
       d="m 8.2523933,11.646535 9.2137237,7.155818 c 0.70865,-0.883264 1.596891,-1.636119 2.666685,-2.18998 0.02847,-0.01474 0.05469,-0.02872 0.08325,-0.0431 L 14.86585,6.2506132 C 12.220599,7.5405321 10.165881,9.452393 8.2523933,11.646535 z" />
    <path
       style="opacity:0.8;fill:url(#linearGradient3317);fill-opacity:1;fill-rule:nonzero;stroke:none"
       id="path3305"
       d="m 5.6328855,16.073974 c 7.1748065,2.242248 7.8502625,7.031463 12.7767855,1.754127 L 10.499985,9.1321388 C 8.2787249,11.062747 6.9132871,13.459349 5.6328855,16.073974 z" />
    <path
       style="opacity:0.8;fill:url(#linearGradient3319);fill-opacity:1;fill-rule:nonzero;stroke:none"
       id="path3307"
       d="M 7.155289,13.193173 C 5.9722117,14.945185 5.2475768,16.829547 4.6301929,18.837116 L 15.96875,21.8125 C 16.184264,21.049497 16.486796,20.297733 16.9375,19.59375 16.95479,19.56675 16.98246,19.52673 17,19.5 L 7.155289,13.193173 z" />
  </g>
  <path
     style="opacity:0.55;color:#000000;fill:none;stroke:url(#linearGradient3057);stroke-width:1;stroke-linecap:round;stroke-linejoin:round;stroke-miterlimit:4;stroke-opacity:1;stroke-dasharray:none;stroke-dashoffset:0;marker:none;visibility:visible;display:inline;overflow:visible;enable-background:accumulate"
     id="path8655"
     d="M 43.5,23.99931 C 43.5,34.76921 34.76891,43.5 24.000247,43.5 13.230598,43.5 4.5,34.769111 4.5,23.99931 4.5,13.229908 13.230598,4.5000024 24.000247,4.5000024 34.76891,4.5000024 43.5,13.229908 43.5,23.99931 l 0,0 z" />
  <path
     style="opacity:0.4;fill:none;stroke:url(#linearGradient3054);stroke-width:0.99999982;stroke-miterlimit:4;stroke-opacity:1"
     id="path3281"
     d="m 24,32.5 c -4.711429,0 -8.5,-3.788571 -8.5,-8.5 0,-4.711429 3.788571,-8.500001 8.5,-8.500001 4.711431,0 8.5,3.788572 8.5,8.500001 0,4.711429 -3.788569,8.5 -8.5,8.5 l 0,0 0,0 0,0 z" />
  <path
     style="fill:none;fill-rule:nonzero;stroke:#000000;stroke-width:1;stroke-miterlimit:4;stroke-opacity:1;opacity:0.3"
     id="path2781-3"
     d="M 44.5,24 C 44.5,12.637039 35.362959,3.5 24,3.5 12.637038,3.5 3.5000001,12.63704 3.5000001,24 3.4999981,35.36296 12.637039,44.5 24,44.5 35.362958,44.499998 44.5,35.362961 44.5,24 z m -13,0 c 0,4.12813 -3.28927,7.5 -7.5,7.5 -4.29333,0 -7.5,-3.455313 -7.5,-7.5 0,-4.127303 3.041467,-7.5 7.5,-7.5 4.458533,0 7.5,3.45447 7.5,7.5 z" />
  <g
     transform="matrix(0.5789476,0,0,0.42857134,22.105262,27.357147)"
     id="g3712-8"
     style="opacity:0.4">
    <rect
       width="5"
       height="7"
       x="38"
       y="40"
       id="rect2801-6"
       style="fill:url(#radialGradient3082-6-3);fill-opacity:1;stroke:none" />
    <rect
       width="5"
       height="7"
       x="-10"
       y="-47"
       transform="scale(-1)"
       id="rect3696-20"
       style="fill:url(#radialGradient3084-4-5);fill-opacity:1;stroke:none" />
    <rect
       width="28"
       height="7.0000005"
       x="10"
       y="40"
       id="rect3700-5"
       style="fill:url(#linearGradient3086-8-3);fill-opacity:1;stroke:none" />
  </g>
  <rect
     width="19.000002"
     height="19.000002"
     rx="3"
     ry="3"
     x="26.5"
     y="27.5"
     id="rect5505-21-8"
     style="color:#000000;display:inline;overflow:visible;visibility:visible;fill:url(#linearGradient866);fill-opacity:1;fill-rule:nonzero;stroke:none;stroke-width:1;marker:none;enable-background:accumulate" />
  <rect
     width="17"
     height="17"
     x="27.5"
     y="28.5"
     id="rect6741-9-0"
     style="opacity:0.5;fill:none;stroke:url(#linearGradient5397);stroke-width:1;stroke-linecap:round;stroke-linejoin:round;stroke-miterlimit:4;stroke-dasharray:none;stroke-dashoffset:0;stroke-opacity:1"
     rx="2"
     ry="2" />
  <rect
     width="19.000002"
     height="19.000002"
     rx="3"
     ry="3"
     x="26.5"
     y="27.5"
     id="rect5505-21-8-1-7"
     style="color:#000000;display:inline;overflow:visible;visibility:visible;opacity:0.5;fill:none;stroke:#a62100;stroke-width:1;stroke-linecap:round;stroke-linejoin:round;stroke-miterlimit:4;stroke-dasharray:none;stroke-dashoffset:0;stroke-opacity:1;marker:none;enable-background:accumulate" />
  <g
     style="color:#000000;clip-rule:nonzero;display:inline;overflow:visible;visibility:visible;isolation:auto;mix-blend-mode:normal;color-interpolation:sRGB;color-interpolation-filters:linearRGB;solid-color:#000000;solid-opacity:1;fill:#a62100;fill-opacity:0.5;fill-rule:nonzero;stroke:none;stroke-width:1;stroke-linecap:butt;stroke-linejoin:miter;stroke-miterlimit:4;stroke-dasharray:none;stroke-dashoffset:0;stroke-opacity:1;marker:none;color-rendering:auto;image-rendering:auto;shape-rendering:auto;text-rendering:auto;enable-background:accumulate"
     id="g838"
     transform="translate(-665.00019,508.192)">
    <path
       inkscape:connector-curvature="0"
       d="m 698.99439,-475.39289 c -0.554,0.14844 -1,0.73897 -1,1.3125 v 7.0933 c -0.56177,-0.29416 -1.28326,-0.4131 -2.03125,-0.21875 -1.34976,0.35071 -2.19558,1.48415 -1.90625,2.53125 0.28933,1.0471 1.61899,1.63196 2.96875,1.28125 1.07683,-0.27979 1.81912,-1.07146 1.9375,-1.90625 l 0.0312,-7.09369 5.99963,-1.62463 v 5.53094 c -0.56177,-0.29416 -1.28326,-0.4131 -2.03125,-0.21875 -1.34975,0.35071 -2.19557,1.48415 -1.90625,2.53125 0.28933,1.0471 1.619,1.63196 2.96875,1.28125 1.07683,-0.27979 1.81912,-1.07145 1.9375,-1.90625 l 0.0312,-9.43651 c 0,-0.43016 -0.2677,-0.88338 -0.625,-0.81269 -2.15319,0.426 -4.24977,1.10385 -6.37453,1.65578 z"
       id="path836"
       style="color:#000000;clip-rule:nonzero;display:inline;overflow:visible;visibility:visible;isolation:auto;mix-blend-mode:normal;color-interpolation:sRGB;color-interpolation-filters:linearRGB;solid-color:#000000;solid-opacity:1;fill:#a62100;fill-opacity:0.5;fill-rule:nonzero;stroke:none;stroke-width:1;stroke-linecap:butt;stroke-linejoin:miter;stroke-miterlimit:4;stroke-dasharray:none;stroke-dashoffset:0;stroke-opacity:1;marker:none;color-rendering:auto;image-rendering:auto;shape-rendering:auto;text-rendering:auto;enable-background:accumulate"
       sodipodi:nodetypes="cscsssccccsssccsc" />
  </g>
  <g
     style="color:#000000;clip-rule:nonzero;display:inline;overflow:visible;visibility:visible;isolation:auto;mix-blend-mode:normal;color-interpolation:sRGB;color-interpolation-filters:linearRGB;solid-color:#000000;solid-opacity:1;fill:#ffffff;fill-opacity:1;fill-rule:nonzero;stroke:none;stroke-width:1;stroke-linecap:butt;stroke-linejoin:miter;stroke-miterlimit:4;stroke-dasharray:none;stroke-dashoffset:0;stroke-opacity:1;marker:none;color-rendering:auto;image-rendering:auto;shape-rendering:auto;text-rendering:auto;enable-background:accumulate"
     id="layer14"
     transform="translate(-665.00019,507.192)">
    <path
       inkscape:connector-curvature="0"
       d="m 699.00039,-475.39289 c -0.554,0.14844 -1,0.73897 -1,1.3125 v 7.0933 c -0.56177,-0.29416 -1.28326,-0.4131 -2.03125,-0.21875 -1.34976,0.35071 -2.19558,1.48415 -1.90625,2.53125 0.28933,1.0471 1.61899,1.63196 2.96875,1.28125 1.07683,-0.27979 1.81912,-1.07146 1.9375,-1.90625 l 0.0312,-7.09369 5.99963,-1.62463 v 5.53094 c -0.56177,-0.29416 -1.28326,-0.4131 -2.03125,-0.21875 -1.34975,0.35071 -2.19557,1.48415 -1.90625,2.53125 0.28933,1.0471 1.619,1.63196 2.96875,1.28125 1.07683,-0.27979 1.81912,-1.07145 1.9375,-1.90625 l 0.0312,-9.43651 c 0,-0.43016 -0.2677,-0.88338 -0.625,-0.81269 -2.15319,0.426 -4.24977,1.10385 -6.37453,1.65578 z"
       id="path16590"
       style="color:#000000;clip-rule:nonzero;display:inline;overflow:visible;visibility:visible;isolation:auto;mix-blend-mode:normal;color-interpolation:sRGB;color-interpolation-filters:linearRGB;solid-color:#000000;solid-opacity:1;fill:#ffffff;fill-opacity:1;fill-rule:nonzero;stroke:none;stroke-width:1;stroke-linecap:butt;stroke-linejoin:miter;stroke-miterlimit:4;stroke-dasharray:none;stroke-dashoffset:0;stroke-opacity:1;marker:none;color-rendering:auto;image-rendering:auto;shape-rendering:auto;text-rendering:auto;enable-background:accumulate"
       sodipodi:nodetypes="cscsssccccsssccsc" />
  </g>
</svg>
